<svg id="Capa_1" data-name="Capa 1" xmlns="http://www.w3.org/2000/svg" viewBox="0 0 500 500"><defs><style>.cls-1{fill:#70926c;}.cls-2{fill:#49b749;}.cls-3{fill:#e8e32a;}.cls-4{fill:#7c756c;}.cls-5{fill:#3e9b3e;}</style></defs><title>persona-4</title><polygon class="cls-1" points="263 129 188 101 177 108 207 199 208 271 206 287 216 369 231 353 234 279 263 129"/><polygon class="cls-2" points="225 238 278 238 271 309 260 337 266 374 256 384 256 399 240 376 242 336 225 238"/><path class="cls-3" d="M305,120l-48,11-47-10-14,4,22,39,1,81,63-2,5-80,25-35Zm-52,38-29-13,53-1Z"/><circle class="cls-4" cx="251.5" cy="139.5" r="19.5"/><polygon class="cls-5" points="241 332.3 241 299 226.1 245.7 241 332.3"/></svg>